<?xml version="1.0" encoding="utf-8"?>
<svg xmlns="http://www.w3.org/2000/svg" viewBox="-23.5448 1849.6339 462.2442" width="1849.63px" height="462.244px">
  <g transform="matrix(0.10000000149011612, 0, 0, -0.10000000149011612, 2.1561279939451197, 467.3993650495813)">
    <path class="st0" d="M4800,4489c-46-5-87-13-91-17s-3-45,1-92c5-46,8-86,6-88c-6-5-749-71-756-67c-4,2-10,41-13,86 c-4,46-10,86-14,90c-6,6-2358-202-2562-226l-53-7l7-94c6-87,6-94-12-94c-10-1-180-16-378-34c-198-19-361-32-363-31c-2,2-6,37-9,79 c-8,107-9,108-116,97c-49-5-93-13-97-17c-5-5,66-835,163-1898L685,287l100,7c55,3,103,10,106,14c4,4,3,47-2,96s-7,91-4,94 c2,3,172,20,376,39c271,25,374,31,379,23c4-7,10-48,13-93c4-44,10-84,14-87c8-8,2572,224,2599,234c14,5,15,20,9,100l-7,94l53,6 c140,16,702,66,706,63c2-2,6-41,10-86c3-45,11-88,17-95c16-21,250,2,253,24c1,8-75,861-170,1895l-172,1880l-40,1 C4903,4497,4847,4494,4800,4489z M4744,3998c7-31,47-490,44-494c-5-4-753-71-757-68c-4,4-52,507-48,510c1,1,169,18,372,37 c204,19,373,35,377,36C4736,4019,4742,4010,4744,3998z M1360,3693c0-10,9-112,20-228c11-115,20-224,20-241v-30l-375-34 c-206-18-377-31-380-28c-8,7-50,496-44,503c4,4,628,66,742,74C1353,3710,1360,3703,1360,3693z M3087,3345c106-22,153-39,257-91 c93-47,122-67,209-146l52-46l-39-56c-21-30-50-67-64-83c-15-15-43-48-62-73c-49-62-102-120-111-120c-4,0-36,24-70,54 c-68,60-176,117-254,135c-118,28-270,10-368-41c-58-32-158-117-180-155c-79-136-108-257-90-376c41-276,246-458,515-458 c92,1,152,14,235,52c81,38,152,96,204,164c23,30,49,55,59,55c16,0,44-22,190-148c30-27,70-58,88-71c18-13,32-31,32-43 c0-33-107-163-174-213c-23-16-43-32-46-36c-3-3-31-23-63-43c-281-179-691-202-980-55c-115,59-264,180-325,264 c-86,118-111,167-153,289c-32,91-42,158-43,296c-2,198,17,285,98,442c51,100,94,158,181,243c63,61,73,70,135,116 c64,46,249,129,291,129c10,0,27,4,37,10c23,14,201,28,289,24C2976,3362,3044,3353,3087,3345z M4838,2978c13-138,19-254,15-258 c-10-9-742-74-749-67c-6,6-54,500-49,505c3,3,682,68,735,71l26,1L4838,2978z M1430,2908c1-7,11-122,23-255l23-243l-31-5 c-52-8-726-67-730-63c-7,8-47,500-41,506c7,6,633,68,719,71C1416,2920,1430,2915,1430,2908z M4890,2428c0-7,10-120,22-251 c11-130,19-240,15-243c-6-6-748-76-753-71c-3,3-37,352-46,472l-3,40l335,31C4852,2443,4890,2445,4890,2428z M1500,2128 c4-21,47-504,46-505c-5-6-752-70-757-64c-7,6-53,501-47,505C753,2074,1499,2136,1500,2128z M4963,1608c15-131,41-458,36-462 c-3-3-751-75-756-72c-4,3-46,506-42,510c2,2,171,20,374,39c204,19,373,35,376,36C4954,1659,4960,1636,4963,1608z M1574,1318 c3-18,12-114,21-213c8-99,18-201,21-226l5-45l-376-34c-230-21-379-30-384-24c-8,9-54,494-48,501c3,2,656,66,739,72 C1564,1350,1571,1340,1574,1318z" style="fill: rgb(245, 65, 63);"/>
  </g>
  <path transform="matrix(1, 0, 0, 1, -396.99149742697125, -23.544802413725847)"/>
  <text style="white-space: pre; fill: white; font-family: sans-serif; font-size: 230px; font-weight: bold;" x="967.811" y="338.813" transform="matrix(1, 0, 0, 1, -396.99149742697125, -23.544802413725847)">CinePro</text>
</svg>